<svg xmlns="http://www.w3.org/2000/svg" width="60" height="60" viewBox="0 0 60 60">
  <g fill="none" fill-rule="evenodd">
    <path fill="#0054F0" fill-rule="nonzero" d="M60,30 C60,46.5591398 46.5608466,60 30,60 C13.4391534,60 -2.96984659e-15,46.5591398 -2.96984659e-15,30 C-2.96984659e-15,13.4408602 13.4391534,-2.60902411e-15 30,-2.60902411e-15 C46.5608466,-2.60902411e-15 60,13.4408602 60,30 Z"/>
    <path fill="#FFF" fill-rule="nonzero" d="M26.2105263,21.8230088 L26.5263158,20.4955752 C26.5789474,20.3893805 26.7368421,20.2300885 26.8947368,20.2300885 L29.4210526,20.2831858 C30.2105263,17.6814159 31.3684211,13.9115044 33.8421053,11.3628319 C35.5789474,9.61061947 38,8.54867257 40.4736842,8.54867257 C42.6315789,8.54867257 45.2631579,9.55752212 45.2631579,11.0973451 C45.2631579,12.2123894 44.1578947,13.8584071 42.6842105,13.8584071 C41.4210526,13.8584071 41.4736842,12.4247788 41.1052632,11.5752212 C40.6842105,10.7256637 40.4210526,10.1946903 39.5263158,10.1946903 C39,10.1946903 38.4210526,10.6725664 38.2105263,10.8849558 C35.8947368,13.1681416 34.6842105,17.3628319 33.8947368,20.2300885 L37.2631579,20.2300885 C37.4210526,20.2300885 37.5263158,20.3893805 37.4736842,20.5486726 L37.0526316,21.7699115 C37,21.8761062 36.8947368,22.0884956 36.6315789,22.0884956 L33.3684211,22.0353982 L30.2631579,35.4690265 C29,40.4070796 27.6315789,43.9115044 25.1578947,46.7256637 C23.2631579,48.9557522 20.3684211,50.3893805 18.1578947,50.3893805 C17.0526316,50.3893805 13.6842105,49.9115044 13.6842105,47.8938053 C13.6842105,46.3539823 15.1578947,45.1327434 16.2631579,45.1327434 C17.3157895,45.1327434 17.7894737,46.1415929 17.9473684,46.8849558 C18.2105263,47.8938053 18.6315789,48.5309735 19.4736842,48.5309735 C20.1052632,48.5309735 20.6842105,48.159292 21.5789474,47.0442478 C22.5789474,45.7699115 24,42.2123894 24.8421053,38.7079646 C25.5263158,35.8938053 28.9473684,22.0884956 28.9473684,22.0884956 L26.4210526,22.1415929 C26.2631579,22.1415929 26.1578947,21.9823009 26.2105263,21.8230088 Z M39.3157895,35.840708 C39.2631579,36.5309735 38.8947368,38.3893805 36.8421053,38.3893805 C35.6315789,38.3893805 34.7368421,37.5929204 34.8421053,36.159292 C34.8947368,34.7256637 35.8947368,33.5575221 37.3157895,33.5044248 C38.2631579,33.5575221 39.4210526,34.1946903 39.3157895,35.840708 Z M46.6315789,35.840708 C46.5789474,36.5309735 46.2105263,38.3893805 44.1578947,38.3893805 C42.9473684,38.3893805 42.0526316,37.5929204 42.1578947,36.159292 C42.2105263,34.7256637 43.2105263,33.5575221 44.6315789,33.5044248 C45.5263158,33.5575221 46.6842105,34.1946903 46.6315789,35.840708 Z M53.8947368,35.840708 C53.8421053,36.5309735 53.4736842,38.3893805 51.4210526,38.3893805 C50.2105263,38.3893805 49.3157895,37.5929204 49.4210526,36.159292 C49.4736842,34.7256637 50.4736842,33.5575221 51.8947368,33.5044248 C52.8421053,33.5575221 53.9473684,34.1946903 53.8947368,35.840708 Z M22.5789474,10.9911504 C23.6315789,10.9911504 24.7894737,11.6814159 24.6842105,13.380531 C24.6842105,14.1238938 24.2105263,16.1415929 22,16.1415929 C20.6842105,16.1415929 19.7894737,15.2920354 19.8947368,13.8053097 C20,12.2654867 21.0526316,11.0442478 22.5789474,10.9911504 Z M18.9473684,30.6902655 L17.9473684,33.2920354 C17.7894737,33.6106195 17.5789474,34.300885 17.5789474,34.6725664 C17.5789474,34.7256637 17.5263158,35.1504425 17.8947368,35.1504425 C18.6842105,35.1504425 20.9473684,32.6017699 20.9473684,32.6017699 C21.1052632,32.4424779 21.3157895,32.4955752 21.4210526,32.6017699 L22.0526316,33.1858407 C22.1578947,33.2920354 22.2105263,33.4513274 22.0526316,33.6637168 C22.0526316,33.6637168 17.8421053,38.7610619 14.4736842,38.7610619 C13,38.7610619 12.4210526,37.9115044 12.4210526,36.8495575 C12.4210526,35.9469027 12.8421053,34.8318584 13.6842105,32.7610619 L16.1052632,26.5486726 C16.3684211,25.9115044 16.8947368,24.6371681 16.8947368,24.1061947 C16.8947368,23.9469027 16.7894737,23.6283186 16.5789474,23.6283186 C16.4210526,23.6283186 16.2105263,23.7876106 16.0526316,23.8938053 C15.4736842,24.3185841 13.9473684,26.0176991 13.9473684,26.0176991 C13.8421053,26.1769912 13.6315789,26.1769912 13.5263158,26.0707965 L12.9473684,25.4867257 C12.7368421,25.3274336 12.7894737,25.1150442 12.8947368,25.0088496 C14.1578947,23.5221239 17.5263158,19.8053097 20.6842105,19.8053097 C21.3684211,19.8053097 22.3157895,20.1238938 22.3157895,21.3982301 C22.3157895,22.4070796 21.7368421,23.8938053 21.2631579,25.0088496 L18.9473684,30.6902655 Z"/>
  </g>
</svg>
